<?xml version="1.0" encoding="UTF-8" standalone="no"?>
<!DOCTYPE svg PUBLIC "-//W3C//DTD SVG 1.1//EN"
 "http://www.w3.org/Graphics/SVG/1.1/DTD/svg11.dtd">
<!-- Generated by graphviz version 2.40.1 (20161225.0304)
 -->
<!-- Title: %3 Pages: 1 -->
<svg width="981pt" height="476pt"
 viewBox="0.00 0.00 980.62 476.00" xmlns="http://www.w3.org/2000/svg" xmlns:xlink="http://www.w3.org/1999/xlink">
<g id="graph0" class="graph" transform="scale(1 1) rotate(0) translate(4 472)">
<title>%3</title>
<polygon fill="#ffffff" stroke="transparent" points="-4,4 -4,-472 976.6214,-472 976.6214,4 -4,4"/>
<!-- add&#45;layer -->
<g id="node1" class="node">
<title>add&#45;layer</title>
<ellipse fill="none" stroke="#000000" cx="338.1242" cy="-306" rx="44.393" ry="18"/>
<text text-anchor="middle" x="338.1242" y="-302.3" font-family="Times,serif" font-size="14.00" fill="#000000">add&#45;layer</text>
</g>
<!-- data -->
<g id="node2" class="node">
<title>data</title>
<ellipse fill="none" stroke="#000000" cx="501.1242" cy="-450" rx="27" ry="18"/>
<text text-anchor="middle" x="501.1242" y="-446.3" font-family="Times,serif" font-size="14.00" fill="#000000">data</text>
</g>
<!-- add&#45;layer&#45;&gt;data -->
<g id="edge1" class="edge">
<title>add&#45;layer&#45;&gt;data</title>
<path fill="none" stroke="#000000" d="M356.8224,-322.5186C386.4249,-348.6705 444.0751,-399.6008 476.8371,-428.5438"/>
<polygon fill="#000000" stroke="#000000" points="474.7863,-431.4023 484.5979,-435.4001 479.4208,-426.1562 474.7863,-431.4023"/>
</g>
<!-- mkdtemp -->
<g id="node3" class="node">
<title>mkdtemp</title>
<ellipse fill="none" stroke="#000000" cx="593.1242" cy="-378" rx="44.6926" ry="18"/>
<text text-anchor="middle" x="593.1242" y="-374.3" font-family="Times,serif" font-size="14.00" fill="#000000">mkdtemp</text>
</g>
<!-- add&#45;layer&#45;&gt;mkdtemp -->
<g id="edge2" class="edge">
<title>add&#45;layer&#45;&gt;mkdtemp</title>
<path fill="none" stroke="#000000" d="M371.6609,-317.7634C378.0966,-319.9146 384.8004,-322.0832 391.1242,-324 443.2768,-339.8081 503.7274,-355.6456 544.8096,-366.0419"/>
<polygon fill="#000000" stroke="#000000" points="544.0089,-369.4495 554.5611,-368.4995 545.7196,-362.6617 544.0089,-369.4495"/>
</g>
<!-- nodepath -->
<g id="node4" class="node">
<title>nodepath</title>
<ellipse fill="none" stroke="#000000" cx="195.1242" cy="-378" rx="42.7926" ry="18"/>
<text text-anchor="middle" x="195.1242" y="-374.3" font-family="Times,serif" font-size="14.00" fill="#000000">nodepath</text>
</g>
<!-- add&#45;layer&#45;&gt;nodepath -->
<g id="edge3" class="edge">
<title>add&#45;layer&#45;&gt;nodepath</title>
<path fill="none" stroke="#000000" d="M310.2129,-320.0532C287.8703,-331.3027 256.3451,-347.1755 231.9372,-359.4648"/>
<polygon fill="#000000" stroke="#000000" points="230.3229,-356.3589 222.9652,-363.9822 233.4709,-362.6112 230.3229,-356.3589"/>
</g>
<!-- mkdtemp&#45;&gt;data -->
<g id="edge24" class="edge">
<title>mkdtemp&#45;&gt;data</title>
<path fill="none" stroke="#000000" d="M572.248,-394.3379C558.7755,-404.8816 541.1554,-418.6713 526.8239,-429.8872"/>
<polygon fill="#000000" stroke="#000000" points="524.5399,-427.2302 518.8219,-436.1496 528.8541,-432.7428 524.5399,-427.2302"/>
</g>
<!-- nodepath&#45;&gt;data -->
<g id="edge28" class="edge">
<title>nodepath&#45;&gt;data</title>
<path fill="none" stroke="#000000" d="M229.033,-389.2728C236.5952,-391.6286 244.6021,-394.0012 252.1242,-396 327.0011,-415.8964 415.9757,-433.8447 464.7081,-443.1971"/>
<polygon fill="#000000" stroke="#000000" points="464.2853,-446.6795 474.7639,-445.1144 465.5964,-439.8034 464.2853,-446.6795"/>
</g>
<!-- b -->
<g id="node5" class="node">
<title>b</title>
<ellipse fill="none" stroke="#000000" cx="101.1242" cy="-18" rx="27" ry="18"/>
<text text-anchor="middle" x="101.1242" y="-14.3" font-family="Times,serif" font-size="14.00" fill="#000000">b</text>
</g>
<!-- build -->
<g id="node6" class="node">
<title>build</title>
<ellipse fill="none" stroke="#000000" cx="101.1242" cy="-90" rx="28.6953" ry="18"/>
<text text-anchor="middle" x="101.1242" y="-86.3" font-family="Times,serif" font-size="14.00" fill="#000000">build</text>
</g>
<!-- b&#45;&gt;build -->
<g id="edge4" class="edge">
<title>b&#45;&gt;build</title>
<path fill="none" stroke="#000000" d="M101.1242,-36.1686C101.1242,-43.869 101.1242,-53.0257 101.1242,-61.5834"/>
<polygon fill="#000000" stroke="#000000" points="97.6243,-61.5867 101.1242,-71.5867 104.6243,-61.5868 97.6243,-61.5867"/>
</g>
<!-- build&#45;&gt;nodepath -->
<g id="edge8" class="edge">
<title>build&#45;&gt;nodepath</title>
<path fill="none" stroke="#000000" d="M86.1753,-105.6986C49.9879,-145.6296 -35.5852,-252.9279 17.1242,-324 32.4475,-344.6615 97.6325,-360.5198 144.6865,-369.5515"/>
<polygon fill="#000000" stroke="#000000" points="144.2516,-373.0307 154.7246,-371.4285 145.5383,-366.15 144.2516,-373.0307"/>
</g>
<!-- create -->
<g id="node7" class="node">
<title>create</title>
<ellipse fill="none" stroke="#000000" cx="284.1242" cy="-162" rx="31.6951" ry="18"/>
<text text-anchor="middle" x="284.1242" y="-158.3" font-family="Times,serif" font-size="14.00" fill="#000000">create</text>
</g>
<!-- build&#45;&gt;create -->
<g id="edge5" class="edge">
<title>build&#45;&gt;create</title>
<path fill="none" stroke="#000000" d="M125.4252,-99.561C156.8854,-111.9388 211.9665,-133.6101 248.2468,-147.8843"/>
<polygon fill="#000000" stroke="#000000" points="247.3587,-151.296 257.9458,-151.7003 249.9216,-144.782 247.3587,-151.296"/>
</g>
<!-- eval -->
<g id="node8" class="node">
<title>eval</title>
<ellipse fill="none" stroke="#000000" cx="129.1242" cy="-162" rx="27" ry="18"/>
<text text-anchor="middle" x="129.1242" y="-158.3" font-family="Times,serif" font-size="14.00" fill="#000000">eval</text>
</g>
<!-- build&#45;&gt;eval -->
<g id="edge6" class="edge">
<title>build&#45;&gt;eval</title>
<path fill="none" stroke="#000000" d="M108.0456,-107.7978C111.2329,-115.9936 115.0844,-125.8976 118.6186,-134.9855"/>
<polygon fill="#000000" stroke="#000000" points="115.396,-136.3555 122.2825,-144.407 121.92,-133.8183 115.396,-136.3555"/>
</g>
<!-- map -->
<g id="node9" class="node">
<title>map</title>
<ellipse fill="none" stroke="#000000" cx="53.1242" cy="-306" rx="27" ry="18"/>
<text text-anchor="middle" x="53.1242" y="-302.3" font-family="Times,serif" font-size="14.00" fill="#000000">map</text>
</g>
<!-- build&#45;&gt;map -->
<g id="edge7" class="edge">
<title>build&#45;&gt;map</title>
<path fill="none" stroke="#000000" d="M97.1144,-108.0445C88.7288,-145.7795 69.2913,-233.2482 59.2994,-278.2118"/>
<polygon fill="#000000" stroke="#000000" points="55.8417,-277.6376 57.089,-288.1587 62.675,-279.1562 55.8417,-277.6376"/>
</g>
<!-- create&#45;&gt;add&#45;layer -->
<g id="edge12" class="edge">
<title>create&#45;&gt;add&#45;layer</title>
<path fill="none" stroke="#000000" d="M306.1434,-175.2893C319.5752,-184.7654 335.5695,-198.8441 343.1242,-216 351.705,-235.4857 349.7527,-259.6803 346.0397,-278.0748"/>
<polygon fill="#000000" stroke="#000000" points="342.6121,-277.3628 343.7842,-287.8926 349.4344,-278.9301 342.6121,-277.3628"/>
</g>
<!-- create&#45;&gt;data -->
<g id="edge13" class="edge">
<title>create&#45;&gt;data</title>
<path fill="none" stroke="#000000" d="M253.0749,-166.292C173.7445,-178.8169 -27.1156,-221.1482 17.1242,-324 35.5092,-366.7426 51.1264,-375.972 93.1242,-396 158.5065,-427.1797 376.2587,-442.8435 464.0056,-448.0103"/>
<polygon fill="#000000" stroke="#000000" points="463.8582,-451.5075 474.043,-448.5887 464.261,-444.5191 463.8582,-451.5075"/>
</g>
<!-- create&#45;&gt;mkdtemp -->
<g id="edge14" class="edge">
<title>create&#45;&gt;mkdtemp</title>
<path fill="none" stroke="#000000" d="M315.1351,-166.1768C374.4926,-174.5532 501.6912,-194.4554 540.1242,-216 578.5188,-237.523 591.8626,-247.0984 608.1242,-288 616.1236,-308.1202 611.3044,-332.4124 605.0746,-350.6855"/>
<polygon fill="#000000" stroke="#000000" points="601.7587,-349.5607 601.541,-360.1533 608.3168,-352.0084 601.7587,-349.5607"/>
</g>
<!-- create&#45;&gt;nodepath -->
<g id="edge15" class="edge">
<title>create&#45;&gt;nodepath</title>
<path fill="none" stroke="#000000" d="M258.715,-173.1829C241.6074,-182.1487 220.217,-196.4675 209.1242,-216 185.4751,-257.6425 187.0209,-315.2323 190.7551,-349.3483"/>
<polygon fill="#000000" stroke="#000000" points="187.3157,-350.0547 192.0153,-359.5502 194.2629,-349.1965 187.3157,-350.0547"/>
</g>
<!-- runopts -->
<g id="node13" class="node">
<title>runopts</title>
<ellipse fill="none" stroke="#000000" cx="494.1242" cy="-234" rx="37.0935" ry="18"/>
<text text-anchor="middle" x="494.1242" y="-230.3" font-family="Times,serif" font-size="14.00" fill="#000000">runopts</text>
</g>
<!-- create&#45;&gt;runopts -->
<g id="edge16" class="edge">
<title>create&#45;&gt;runopts</title>
<path fill="none" stroke="#000000" d="M311.5781,-171.4127C347.911,-183.8698 412.2328,-205.9229 454.0116,-220.2471"/>
<polygon fill="#000000" stroke="#000000" points="453.0043,-223.6017 463.599,-223.5342 455.2747,-216.9801 453.0043,-223.6017"/>
</g>
<!-- map&#45;&gt;data -->
<g id="edge21" class="edge">
<title>map&#45;&gt;data</title>
<path fill="none" stroke="#000000" d="M64.3463,-322.4526C79.5587,-343.3208 108.8019,-378.6709 143.1242,-396 198.971,-424.1966 384.4284,-441.1932 464.1618,-447.359"/>
<polygon fill="#000000" stroke="#000000" points="464.0044,-450.857 474.2407,-448.124 464.5343,-443.8771 464.0044,-450.857"/>
</g>
<!-- map&#45;&gt;mkdtemp -->
<g id="edge22" class="edge">
<title>map&#45;&gt;mkdtemp</title>
<path fill="none" stroke="#000000" d="M73.5488,-317.7812C78.5089,-320.1966 83.894,-322.4666 89.1242,-324 172.3447,-348.3989 426.1723,-367.237 538.5729,-374.6142"/>
<polygon fill="#000000" stroke="#000000" points="538.4708,-378.1149 548.6769,-375.2714 538.9252,-371.1296 538.4708,-378.1149"/>
</g>
<!-- map&#45;&gt;nodepath -->
<g id="edge23" class="edge">
<title>map&#45;&gt;nodepath</title>
<path fill="none" stroke="#000000" d="M74.691,-316.9353C96.9694,-328.2313 132.1388,-346.0637 158.7328,-359.548"/>
<polygon fill="#000000" stroke="#000000" points="157.2447,-362.7176 167.7465,-364.1183 160.4103,-356.4743 157.2447,-362.7176"/>
</g>
<!-- clean -->
<g id="node10" class="node">
<title>clean</title>
<ellipse fill="none" stroke="#000000" cx="723.1242" cy="-378" rx="29.4969" ry="18"/>
<text text-anchor="middle" x="723.1242" y="-374.3" font-family="Times,serif" font-size="14.00" fill="#000000">clean</text>
</g>
<!-- clean&#45;&gt;data -->
<g id="edge9" class="edge">
<title>clean&#45;&gt;data</title>
<path fill="none" stroke="#000000" d="M699.1896,-388.5346C693.0265,-391.1047 686.3701,-393.7574 680.1242,-396 630.9087,-413.671 572.7501,-430.4859 536.3934,-440.5244"/>
<polygon fill="#000000" stroke="#000000" points="535.0124,-437.2738 526.2938,-443.2933 536.8633,-444.0246 535.0124,-437.2738"/>
</g>
<!-- copy -->
<g id="node11" class="node">
<title>copy</title>
<ellipse fill="none" stroke="#000000" cx="880.1242" cy="-162" rx="27.8951" ry="18"/>
<text text-anchor="middle" x="880.1242" y="-158.3" font-family="Times,serif" font-size="14.00" fill="#000000">copy</text>
</g>
<!-- copy&#45;&gt;mkdtemp -->
<g id="edge10" class="edge">
<title>copy&#45;&gt;mkdtemp</title>
<path fill="none" stroke="#000000" d="M879.9648,-180.3136C878.9958,-199.5669 875.1199,-230.0526 861.1242,-252 802.9872,-343.1676 745.8892,-326.3723 643.1242,-360 640.7458,-360.7783 638.3101,-361.5937 635.8558,-362.4297"/>
<polygon fill="#000000" stroke="#000000" points="634.6785,-359.1335 626.3805,-365.7208 636.9753,-365.7459 634.6785,-359.1335"/>
</g>
<!-- with&#45;mount -->
<g id="node12" class="node">
<title>with&#45;mount</title>
<ellipse fill="none" stroke="#000000" cx="800.1242" cy="-234" rx="51.9908" ry="18"/>
<text text-anchor="middle" x="800.1242" y="-230.3" font-family="Times,serif" font-size="14.00" fill="#000000">with&#45;mount</text>
</g>
<!-- copy&#45;&gt;with&#45;mount -->
<g id="edge11" class="edge">
<title>copy&#45;&gt;with&#45;mount</title>
<path fill="none" stroke="#000000" d="M863.5482,-176.9184C852.886,-186.5144 838.7954,-199.1959 826.604,-210.1683"/>
<polygon fill="#000000" stroke="#000000" points="824.0133,-207.791 818.9218,-217.0822 828.6961,-212.9941 824.0133,-207.791"/>
</g>
<!-- with&#45;mount&#45;&gt;mkdtemp -->
<g id="edge42" class="edge">
<title>with&#45;mount&#45;&gt;mkdtemp</title>
<path fill="none" stroke="#000000" d="M791.0664,-251.9517C780.0959,-272.0502 759.8468,-304.3685 734.1242,-324 718.6011,-335.8473 673.3867,-352.1955 638.2998,-363.7925"/>
<polygon fill="#000000" stroke="#000000" points="637.1221,-360.4952 628.7051,-366.9298 639.2977,-367.1485 637.1221,-360.4952"/>
</g>
<!-- mount -->
<g id="node17" class="node">
<title>mount</title>
<ellipse fill="none" stroke="#000000" cx="544.1242" cy="-306" rx="33.5952" ry="18"/>
<text text-anchor="middle" x="544.1242" y="-302.3" font-family="Times,serif" font-size="14.00" fill="#000000">mount</text>
</g>
<!-- with&#45;mount&#45;&gt;mount -->
<g id="edge43" class="edge">
<title>with&#45;mount&#45;&gt;mount</title>
<path fill="none" stroke="#000000" d="M759.5603,-245.4086C711.3859,-258.9577 631.5596,-281.4088 583.785,-294.8454"/>
<polygon fill="#000000" stroke="#000000" points="582.7787,-291.4926 574.0998,-297.5694 584.6739,-298.2311 582.7787,-291.4926"/>
</g>
<!-- runopts&#45;&gt;data -->
<g id="edge34" class="edge">
<title>runopts&#45;&gt;data</title>
<path fill="none" stroke="#000000" d="M494.709,-252.0445C495.9263,-289.6062 498.7405,-376.4459 500.2035,-421.5897"/>
<polygon fill="#000000" stroke="#000000" points="496.714,-421.9736 500.5362,-431.8549 503.7104,-421.7468 496.714,-421.9736"/>
</g>
<!-- runopts&#45;&gt;mount -->
<g id="edge35" class="edge">
<title>runopts&#45;&gt;mount</title>
<path fill="none" stroke="#000000" d="M505.9735,-251.063C512.1382,-259.94 519.7941,-270.9646 526.6263,-280.8029"/>
<polygon fill="#000000" stroke="#000000" points="523.7812,-282.8422 532.36,-289.0595 529.5308,-278.8494 523.7812,-282.8422"/>
</g>
<!-- export&#45;tar -->
<g id="node14" class="node">
<title>export&#45;tar</title>
<ellipse fill="none" stroke="#000000" cx="789.1242" cy="-162" rx="45.4919" ry="18"/>
<text text-anchor="middle" x="789.1242" y="-158.3" font-family="Times,serif" font-size="14.00" fill="#000000">export&#45;tar</text>
</g>
<!-- export&#45;tar&#45;&gt;with&#45;mount -->
<g id="edge17" class="edge">
<title>export&#45;tar&#45;&gt;with&#45;mount</title>
<path fill="none" stroke="#000000" d="M791.9,-180.1686C793.0765,-187.869 794.4754,-197.0257 795.7828,-205.5834"/>
<polygon fill="#000000" stroke="#000000" points="792.3409,-206.2301 797.3111,-215.5867 799.2606,-205.1728 792.3409,-206.2301"/>
</g>
<!-- import&#45;tar -->
<g id="node15" class="node">
<title>import&#45;tar</title>
<ellipse fill="none" stroke="#000000" cx="645.1242" cy="-234" rx="46.5926" ry="18"/>
<text text-anchor="middle" x="645.1242" y="-230.3" font-family="Times,serif" font-size="14.00" fill="#000000">import&#45;tar</text>
</g>
<!-- import&#45;tar&#45;&gt;add&#45;layer -->
<g id="edge18" class="edge">
<title>import&#45;tar&#45;&gt;add&#45;layer</title>
<path fill="none" stroke="#000000" d="M602.5098,-241.4694C551.7497,-250.7316 464.5854,-267.7923 391.1242,-288 387.7907,-288.917 384.3601,-289.9267 380.9238,-290.9858"/>
<polygon fill="#000000" stroke="#000000" points="379.7579,-287.6839 371.3001,-294.0648 381.891,-294.351 379.7579,-287.6839"/>
</g>
<!-- import&#45;tar&#45;&gt;mkdtemp -->
<g id="edge19" class="edge">
<title>import&#45;tar&#45;&gt;mkdtemp</title>
<path fill="none" stroke="#000000" d="M653.3531,-251.7799C660.797,-270.5875 669.0567,-300.7047 658.1242,-324 651.7546,-337.5727 640.112,-348.9144 628.4215,-357.6434"/>
<polygon fill="#000000" stroke="#000000" points="626.1765,-354.9419 619.9752,-363.5323 630.18,-360.684 626.1765,-354.9419"/>
</g>
<!-- init -->
<g id="node16" class="node">
<title>init</title>
<ellipse fill="none" stroke="#000000" cx="797.1242" cy="-378" rx="27" ry="18"/>
<text text-anchor="middle" x="797.1242" y="-374.3" font-family="Times,serif" font-size="14.00" fill="#000000">init</text>
</g>
<!-- init&#45;&gt;data -->
<g id="edge20" class="edge">
<title>init&#45;&gt;data</title>
<path fill="none" stroke="#000000" d="M776.1996,-389.5989C771.352,-391.9638 766.1411,-394.258 761.1242,-396 683.9139,-422.8106 588.9503,-438.385 537.8519,-445.4279"/>
<polygon fill="#000000" stroke="#000000" points="537.3791,-441.9599 527.9355,-446.7629 538.3132,-448.8973 537.3791,-441.9599"/>
</g>
<!-- mount&#45;&gt;data -->
<g id="edge25" class="edge">
<title>mount&#45;&gt;data</title>
<path fill="none" stroke="#000000" d="M538.7652,-323.9465C531.3864,-348.6569 518.0302,-393.3848 509.3729,-422.3766"/>
<polygon fill="#000000" stroke="#000000" points="505.9234,-421.6963 506.4157,-432.2796 512.6307,-423.6992 505.9234,-421.6963"/>
</g>
<!-- mount&#45;&gt;mkdtemp -->
<g id="edge26" class="edge">
<title>mount&#45;&gt;mkdtemp</title>
<path fill="none" stroke="#000000" d="M555.7366,-323.063C561.6302,-331.723 568.9148,-342.4269 575.4837,-352.0793"/>
<polygon fill="#000000" stroke="#000000" points="572.7351,-354.2614 581.2549,-360.5593 578.5221,-350.323 572.7351,-354.2614"/>
</g>
<!-- mount&#45;&gt;nodepath -->
<g id="edge27" class="edge">
<title>mount&#45;&gt;nodepath</title>
<path fill="none" stroke="#000000" d="M512.9996,-313.068C497.9489,-316.4472 479.6128,-320.5071 463.1242,-324 386.7872,-340.1709 297.9679,-357.8428 244.182,-368.4185"/>
<polygon fill="#000000" stroke="#000000" points="243.37,-365.011 234.2319,-370.3725 244.719,-371.8798 243.37,-365.011"/>
</g>
<!-- parent -->
<g id="node18" class="node">
<title>parent</title>
<ellipse fill="none" stroke="#000000" cx="130.1242" cy="-306" rx="32.4942" ry="18"/>
<text text-anchor="middle" x="130.1242" y="-302.3" font-family="Times,serif" font-size="14.00" fill="#000000">parent</text>
</g>
<!-- parent&#45;&gt;nodepath -->
<g id="edge29" class="edge">
<title>parent&#45;&gt;nodepath</title>
<path fill="none" stroke="#000000" d="M144.8737,-322.3379C153.1715,-331.5293 163.6962,-343.1874 172.9673,-353.4569"/>
<polygon fill="#000000" stroke="#000000" points="170.4559,-355.8982 179.7549,-360.9755 175.6518,-351.2074 170.4559,-355.8982"/>
</g>
<!-- purge -->
<g id="node19" class="node">
<title>purge</title>
<ellipse fill="none" stroke="#000000" cx="873.1242" cy="-378" rx="30.5947" ry="18"/>
<text text-anchor="middle" x="873.1242" y="-374.3" font-family="Times,serif" font-size="14.00" fill="#000000">purge</text>
</g>
<!-- purge&#45;&gt;data -->
<g id="edge30" class="edge">
<title>purge&#45;&gt;data</title>
<path fill="none" stroke="#000000" d="M849.8276,-389.7113C844.4437,-392.0703 838.6667,-394.3337 833.1242,-396 728.9796,-427.3103 600.6667,-441.6431 538.4592,-447.1301"/>
<polygon fill="#000000" stroke="#000000" points="538.0094,-443.6557 528.344,-447.9952 538.6059,-450.6303 538.0094,-443.6557"/>
</g>
<!-- rm -->
<g id="node20" class="node">
<title>rm</title>
<ellipse fill="none" stroke="#000000" cx="427.1242" cy="-306" rx="27" ry="18"/>
<text text-anchor="middle" x="427.1242" y="-302.3" font-family="Times,serif" font-size="14.00" fill="#000000">rm</text>
</g>
<!-- rm&#45;&gt;mkdtemp -->
<g id="edge31" class="edge">
<title>rm&#45;&gt;mkdtemp</title>
<path fill="none" stroke="#000000" d="M449.8578,-315.8603C476.4468,-327.3929 520.9385,-346.6905 553.2975,-360.7258"/>
<polygon fill="#000000" stroke="#000000" points="551.9297,-363.9475 562.4967,-364.7158 554.7152,-357.5255 551.9297,-363.9475"/>
</g>
<!-- rm&#45;&gt;nodepath -->
<g id="edge32" class="edge">
<title>rm&#45;&gt;nodepath</title>
<path fill="none" stroke="#000000" d="M406.1131,-317.362C401.2699,-319.7392 396.0827,-322.0982 391.1242,-324 341.9084,-342.8767 283.4113,-358.1066 243.2112,-367.5204"/>
<polygon fill="#000000" stroke="#000000" points="242.3571,-364.1254 233.4018,-369.7871 243.9331,-370.9457 242.3571,-364.1254"/>
</g>
<!-- run -->
<g id="node21" class="node">
<title>run</title>
<ellipse fill="none" stroke="#000000" cx="516.1242" cy="-162" rx="27" ry="18"/>
<text text-anchor="middle" x="516.1242" y="-158.3" font-family="Times,serif" font-size="14.00" fill="#000000">run</text>
</g>
<!-- run&#45;&gt;mkdtemp -->
<g id="edge33" class="edge">
<title>run&#45;&gt;mkdtemp</title>
<path fill="none" stroke="#000000" d="M540.6361,-169.7541C550.9572,-172.9809 563.1073,-176.7296 574.1242,-180 630.3668,-196.6959 665.7457,-169.199 701.1242,-216 721.8548,-243.4237 679.1048,-318.9496 675.1242,-324 663.5694,-338.6602 646.8955,-350.6592 631.5963,-359.5912"/>
<polygon fill="#000000" stroke="#000000" points="629.8295,-356.569 622.7964,-364.4928 633.2358,-362.6844 629.8295,-356.569"/>
</g>
<!-- run&#45;&gt;runopts -->
<g id="edge44" class="edge">
<title>run&#45;&gt;runopts</title>
<path fill="none" stroke="#000000" d="M510.686,-179.7978C508.2269,-187.8459 505.2644,-197.5412 502.5291,-206.4933"/>
<polygon fill="#000000" stroke="#000000" points="499.1512,-205.5711 499.5761,-216.1575 505.8456,-207.6167 499.1512,-205.5711"/>
</g>
<!-- shallow&#45;copy -->
<g id="node22" class="node">
<title>shallow&#45;copy</title>
<ellipse fill="none" stroke="#000000" cx="276.1242" cy="-234" rx="57.6901" ry="18"/>
<text text-anchor="middle" x="276.1242" y="-230.3" font-family="Times,serif" font-size="14.00" fill="#000000">shallow&#45;copy</text>
</g>
<!-- shallow&#45;copy&#45;&gt;data -->
<g id="edge36" class="edge">
<title>shallow&#45;copy&#45;&gt;data</title>
<path fill="none" stroke="#000000" d="M273.5642,-252.0075C271.7627,-271.2797 271.6732,-302.0392 285.1242,-324 325.8555,-390.4995 415.7704,-425.7121 465.7954,-440.8038"/>
<polygon fill="#000000" stroke="#000000" points="464.9578,-444.2052 475.5375,-443.6402 466.9145,-437.4843 464.9578,-444.2052"/>
</g>
<!-- shallow&#45;copy&#45;&gt;mkdtemp -->
<g id="edge37" class="edge">
<title>shallow&#45;copy&#45;&gt;mkdtemp</title>
<path fill="none" stroke="#000000" d="M331.0522,-239.8481C415.7245,-249.4023 570.1937,-269.1848 587.1242,-288 601.9521,-304.4784 602.216,-330.2521 599.4888,-350.0025"/>
<polygon fill="#000000" stroke="#000000" points="596.0183,-349.5341 597.7957,-359.9788 602.9196,-350.7055 596.0183,-349.5341"/>
</g>
<!-- shallow&#45;copy&#45;&gt;nodepath -->
<g id="edge39" class="edge">
<title>shallow&#45;copy&#45;&gt;nodepath</title>
<path fill="none" stroke="#000000" d="M266.0293,-251.9465C251.9468,-276.9821 226.3062,-322.5653 210.0233,-351.5128"/>
<polygon fill="#000000" stroke="#000000" points="206.9441,-349.8479 205.0919,-360.2796 213.0451,-353.2798 206.9441,-349.8479"/>
</g>
<!-- shallow&#45;copy&#45;&gt;mount -->
<g id="edge38" class="edge">
<title>shallow&#45;copy&#45;&gt;mount</title>
<path fill="none" stroke="#000000" d="M320.0789,-245.8087C371.2039,-259.5438 454.8766,-282.023 504.2089,-295.2765"/>
<polygon fill="#000000" stroke="#000000" points="503.3284,-298.664 513.8941,-297.8785 505.1447,-291.9037 503.3284,-298.664"/>
</g>
<!-- shrink -->
<g id="node23" class="node">
<title>shrink</title>
<ellipse fill="none" stroke="#000000" cx="940.1242" cy="-306" rx="32.4942" ry="18"/>
<text text-anchor="middle" x="940.1242" y="-302.3" font-family="Times,serif" font-size="14.00" fill="#000000">shrink</text>
</g>
<!-- shrink&#45;&gt;data -->
<g id="edge40" class="edge">
<title>shrink&#45;&gt;data</title>
<path fill="none" stroke="#000000" d="M914.1642,-317.2137C907.7035,-319.7098 900.733,-322.1583 894.1242,-324 803.3272,-349.303 769.3951,-317.7772 685.1242,-360 664.3245,-370.4214 666.8805,-383.7149 647.1242,-396 612.2777,-417.6687 567.4071,-432.6296 536.6615,-441.2171"/>
<polygon fill="#000000" stroke="#000000" points="535.548,-437.8925 526.8111,-443.8855 537.3783,-444.649 535.548,-437.8925"/>
</g>
<!-- shrink&#45;&gt;mkdtemp -->
<g id="edge41" class="edge">
<title>shrink&#45;&gt;mkdtemp</title>
<path fill="none" stroke="#000000" d="M914.1935,-317.3212C907.7319,-319.814 900.7537,-322.2341 894.1242,-324 789.0491,-351.9897 758.1973,-336.0687 652.1242,-360 647.4102,-361.0635 642.5249,-362.3114 637.6751,-363.6456"/>
<polygon fill="#000000" stroke="#000000" points="636.4802,-360.3473 627.8365,-366.474 638.4143,-367.0748 636.4802,-360.3473"/>
</g>
<!-- help -->
<g id="node24" class="node">
<title>help</title>
<ellipse fill="none" stroke="#000000" cx="173.1242" cy="-18" rx="27" ry="18"/>
<text text-anchor="middle" x="173.1242" y="-14.3" font-family="Times,serif" font-size="14.00" fill="#000000">help</text>
</g>
<!-- help&#45;macros -->
<g id="node25" class="node">
<title>help&#45;macros</title>
<ellipse fill="none" stroke="#000000" cx="273.1242" cy="-18" rx="54.6905" ry="18"/>
<text text-anchor="middle" x="273.1242" y="-14.3" font-family="Times,serif" font-size="14.00" fill="#000000">help&#45;macros</text>
</g>
<!-- import&#45;docker -->
<g id="node26" class="node">
<title>import&#45;docker</title>
<ellipse fill="none" stroke="#000000" cx="645.1242" cy="-162" rx="61.99" ry="18"/>
<text text-anchor="middle" x="645.1242" y="-158.3" font-family="Times,serif" font-size="14.00" fill="#000000">import&#45;docker</text>
</g>
<!-- import&#45;docker&#45;&gt;import&#45;tar -->
<g id="edge45" class="edge">
<title>import&#45;docker&#45;&gt;import&#45;tar</title>
<path fill="none" stroke="#000000" d="M645.1242,-180.1686C645.1242,-187.869 645.1242,-197.0257 645.1242,-205.5834"/>
<polygon fill="#000000" stroke="#000000" points="641.6243,-205.5867 645.1242,-215.5867 648.6243,-205.5868 641.6243,-205.5867"/>
</g>
<!-- import&#45;lxc -->
<g id="node27" class="node">
<title>import&#45;lxc</title>
<ellipse fill="none" stroke="#000000" cx="394.1242" cy="-18" rx="48.1917" ry="18"/>
<text text-anchor="middle" x="394.1242" y="-14.3" font-family="Times,serif" font-size="14.00" fill="#000000">import&#45;lxc</text>
</g>
<!-- import&#45;url -->
<g id="node28" class="node">
<title>import&#45;url</title>
<ellipse fill="none" stroke="#000000" cx="508.1242" cy="-18" rx="47.3916" ry="18"/>
<text text-anchor="middle" x="508.1242" y="-14.3" font-family="Times,serif" font-size="14.00" fill="#000000">import&#45;url</text>
</g>
<!-- sudo -->
<g id="node29" class="node">
<title>sudo</title>
<ellipse fill="none" stroke="#000000" cx="601.1242" cy="-18" rx="27.0966" ry="18"/>
<text text-anchor="middle" x="601.1242" y="-14.3" font-family="Times,serif" font-size="14.00" fill="#000000">sudo</text>
</g>
<!-- test -->
<g id="node30" class="node">
<title>test</title>
<ellipse fill="none" stroke="#000000" cx="673.1242" cy="-18" rx="27" ry="18"/>
<text text-anchor="middle" x="673.1242" y="-14.3" font-family="Times,serif" font-size="14.00" fill="#000000">test</text>
</g>
<!-- version -->
<g id="node31" class="node">
<title>version</title>
<ellipse fill="none" stroke="#000000" cx="754.1242" cy="-18" rx="36.2938" ry="18"/>
<text text-anchor="middle" x="754.1242" y="-14.3" font-family="Times,serif" font-size="14.00" fill="#000000">version</text>
</g>
</g>
</svg>
